<svg xmlns="http://www.w3.org/2000/svg" viewBox="0 0 78.59 36.7">
    <path fill="#136872" d="M28.91,15.89h-1.74l-1.69-3.62c-.13-.28-.26-.51-.39-.69-.13-.18-.28-.33-.43-.43-.15-.11-.32-.18-.5-.23s-.38-.07-.61-.07h-.73v5.03h-1.54V4.58h3.03c.66,0,1.22.07,1.7.22.47.14.86.35,1.16.61s.52.57.67.94c.14.37.21.77.21,1.21,0,.35-.05.69-.16,1-.1.31-.26.6-.46.86-.2.26-.46.48-.76.67s-.65.33-1.04.42c.32.11.59.3.81.58.22.27.45.64.68,1.09l1.79,3.72ZM26.44,7.69c0-.61-.19-1.06-.57-1.36s-.91-.45-1.6-.45h-1.45v3.74h1.25c.36,0,.69-.04.98-.12.29-.08.54-.21.74-.37.21-.16.36-.37.48-.61.11-.24.17-.51.17-.83Z"/>
    <path fill="#136872" d="M37.72,15.89h-6.43V4.58h6.43v1.3h-4.89v3.5h4.7v1.3h-4.7v3.89h4.89v1.32Z"/>
    <path fill="#136872" d="M48.08,12.51c0,.54-.11,1.02-.32,1.44-.21.42-.51.77-.9,1.06-.39.29-.86.51-1.41.66-.55.15-1.16.23-1.84.23h-2.96V4.58h3.23c2.52,0,3.78.92,3.78,2.75,0,.61-.15,1.14-.44,1.57-.29.44-.77.76-1.42.98.31.06.6.16.87.29.27.14.51.32.72.54.21.22.37.48.49.78s.18.64.18,1.01ZM46.08,7.54c0-.23-.03-.45-.1-.65-.07-.2-.19-.38-.36-.53-.17-.15-.41-.26-.7-.35-.29-.09-.67-.13-1.12-.13h-1.59v3.54h1.54c.35,0,.67-.04.96-.11.29-.08.53-.19.74-.35.21-.16.36-.35.48-.58.11-.23.17-.51.17-.83ZM46.45,12.56c0-.29-.06-.55-.18-.78s-.3-.43-.53-.58c-.23-.16-.51-.28-.84-.37-.33-.09-.71-.13-1.12-.13h-1.57v3.89h1.63c.88,0,1.54-.16,1.97-.49.43-.33.65-.84.65-1.54Z"/>
    <path fill="#136872" d="M57.2,15.89h-6.43V4.58h6.43v1.3h-4.89v3.5h4.7v1.3h-4.7v3.89h4.89v1.32Z"/>
    <path fill="#136872" d="M23.74,31.21h-1.54v-5.19h-4.75v5.19h-1.54v-11.3h1.54v4.78h4.75v-4.78h1.54v11.3Z"/>
    <path fill="#136872" d="M34.34,31.21h-1.68l-.79-2.46h-4.71l-.8,2.46h-1.6l3.75-11.3h2.11l3.7,11.3ZM31.43,27.37l-1.91-6.05-1.91,6.05h3.82Z"/>
    <path fill="#136872" d="M44.17,19.91l-4.09,7.27v4.04h-1.56v-4.07l-4.09-7.23h1.86l2.25,4.13.83,1.66.76-1.5,2.28-4.29h1.76Z"/>
    <path fill="#136872" d="M53.82,31.21h-1.68l-.79-2.46h-4.71l-.8,2.46h-1.6l3.75-11.3h2.11l3.7,11.3ZM50.91,27.37l-1.91-6.05-1.91,6.05h3.82Z"/>
    <path fill="#136872" d="M62.62,31.21h-2.01l-3.3-7.05-.95-2.27v9.32h-1.44v-11.3h1.98l3.14,6.68,1.13,2.59v-9.26h1.44v11.3Z"/>
    <path fill="#136872" d="M12.06,36.7h-3.75c-1.31,0-2.26-.41-2.84-1.23-.5-.71-.75-1.66-.75-2.83v-8.45c0-.92-.14-1.69-.43-2.3-.28-.61-.63-1.09-1.02-1.43-.42-.36-.84-.62-1.25-.79-.45-.18-.85-.3-1.19-.36-.48-.08-.83-.5-.83-.99v-.1c0-.49.35-.91.84-.99.33-.06.73-.18,1.17-.37.42-.18.85-.46,1.27-.83.4-.34.74-.81,1.02-1.39.28-.57.42-1.27.42-2.08V4.06c0-.99.25-1.88.75-2.67.41-.64,1.23-1.39,2.84-1.39h3.75v2h-3.75c-.85,0-1.07.34-1.15.47-.3.46-.44.98-.44,1.59v8.51c0,1.12-.21,2.11-.62,2.95-.4.83-.91,1.51-1.52,2.03-.31.27-.62.5-.94.7.32.2.63.43.94.69.61.53,1.12,1.23,1.52,2.1.41.88.61,1.93.61,3.15v8.45c0,.75.13,1.32.39,1.68.22.32.78.38,1.21.38h3.75v2Z"/>
    <path fill="#136872" d="M70.28,36.7h-3.75v-2h3.75c.43,0,.98-.07,1.21-.38.26-.36.39-.93.39-1.68v-8.45c0-1.21.21-2.27.61-3.14.4-.87.92-1.57,1.52-2.1.31-.27.62-.5.94-.69-.32-.2-.63-.43-.94-.7-.6-.52-1.11-1.2-1.52-2.03-.41-.84-.62-1.84-.62-2.95V4.06c0-.61-.14-1.13-.44-1.59-.08-.13-.3-.47-1.15-.47h-3.75V0h3.75c1.61,0,2.43.76,2.84,1.4.5.78.75,1.68.75,2.66v8.51c0,.81.14,1.51.42,2.08.28.58.63,1.05,1.02,1.39.42.36.85.64,1.27.83.44.19.83.32,1.17.37.48.08.84.5.84.99v.1c0,.49-.35.91-.83.99-.34.06-.75.18-1.19.36-.41.16-.83.43-1.25.79-.39.34-.73.82-1.02,1.43-.28.61-.43,1.38-.43,2.3v8.45c0,1.18-.25,2.13-.75,2.83-.58.81-1.53,1.23-2.84,1.23Z"/>
</svg>